<?xml version="1.0" encoding="UTF-8"?>
<svg version="1.1" xmlns="http://www.w3.org/2000/svg" width="573" height="436">
<path d="M0 0 C3.53581987 1.98200998 6.34190867 4.08691397 9.21456909 6.94041443 C10.42606377 8.13694641 10.42606377 8.13694641 11.66203308 9.35765076 C12.53394791 10.22890091 13.40586273 11.10015106 14.30419922 11.99780273 C15.23312485 12.91840485 16.16205048 13.83900696 17.11912537 14.7875061 C19.6587773 17.30527795 22.19188588 19.82953273 24.72316504 22.35571933 C26.30464252 23.93354887 27.88740916 25.51007351 29.47061539 27.08616829 C34.99263205 32.58372364 40.50893467 38.08694608 46.02050781 43.5949707 C51.1614809 48.73229983 56.31546616 53.85631979 61.47546947 58.97452778 C65.90559775 63.37002278 70.32611457 67.77503032 74.73930943 72.18752629 C77.3753141 74.82273647 80.01517926 77.45378261 82.6649437 80.07516289 C85.61464526 82.99396536 88.544167 85.93223193 91.47216797 88.87280273 C92.79825829 90.17664162 92.79825829 90.17664162 94.15113831 91.50682068 C94.94188248 92.30732849 95.73262665 93.1078363 96.54733276 93.93260193 C97.24232313 94.62558097 97.9373135 95.31856001 98.65336418 96.03253841 C100 98 100 98 99.95178127 99.99357224 C98.73781108 102.55271431 97.22436269 104.15953011 95.22416687 106.17024231 C94.4123999 106.99335907 93.60063293 107.81647583 92.76426697 108.66453552 C91.86712479 109.5587471 90.9699826 110.45295868 90.0456543 111.37426758 C89.09573387 112.33152792 88.14643872 113.28940908 87.19772339 114.24786377 C84.62010436 116.84771022 82.03291056 119.43782283 79.44321036 122.02562928 C77.28340905 124.185311 75.12796397 126.34931511 72.97239619 128.51322097 C67.88911646 133.61573741 62.79769907 138.71003423 57.70141602 143.79956055 C52.43882648 149.0555014 47.19118875 154.32604408 41.95048779 159.6038025 C37.45323751 164.13169891 32.94642896 168.64992413 28.4318803 173.16057318 C25.73430167 175.85607987 23.04067175 178.55526268 20.35635948 181.26398659 C17.83358272 183.80894532 15.29914037 186.34166663 12.75507736 188.86534119 C11.37578213 190.23957428 10.00887729 191.62620801 8.64231873 193.0131073 C7.82209229 193.82212494 7.00186584 194.63114258 6.15678406 195.4646759 C5.44645869 196.17571378 4.73613333 196.88675165 4.00428295 197.61933613 C2 199 2 199 -0.06100082 198.89762878 C-2.21486689 197.9005308 -3.51025456 196.85681689 -5.18077087 195.17326355 C-5.78486282 194.57185043 -6.38895477 193.97043732 -7.01135254 193.35079956 C-7.66236938 192.68742584 -8.31338623 192.02405212 -8.98413086 191.34057617 C-9.67894058 190.64459824 -10.37375031 189.9486203 -11.08961487 189.23155212 C-13.388394 186.92557653 -15.67647306 184.60926974 -17.96484375 182.29296875 C-19.56067834 180.68899795 -21.15725144 179.0857616 -22.75453186 177.48323059 C-26.96272794 173.25789721 -31.16228492 169.0240847 -35.35968018 164.7880249 C-42.07257827 158.01600053 -48.79808739 151.25650689 -55.52426338 144.49767494 C-57.87179661 142.13619734 -60.21546048 139.77093268 -62.55857849 137.40507507 C-64.00112516 135.95250107 -65.44375289 134.50000756 -66.88647461 133.04760742 C-67.53546722 132.3903064 -68.18445984 131.73300537 -68.8531189 131.05578613 C-72.09072136 127.80238904 -75.36321493 124.8144839 -79 122 C-80.0972291 120.82311258 -81.16158081 119.61454246 -82.1875 118.375 C-87.22030514 112.49048937 -92.53409046 106.31060636 -99 102 C-98.81477977 96.30175424 -94.91104581 93.39110553 -91.0625 89.6875 C-90.41603516 89.04232422 -89.76957031 88.39714844 -89.10351562 87.73242188 C-84.28095238 83 -84.28095238 83 -82 83 C-81.34 81.68 -80.68 80.36 -80 79 C-79.34 79 -78.68 79 -78 79 C-77.7628125 78.43829102 -77.525625 77.87658203 -77.28125 77.29785156 C-75.70680643 74.47417342 -73.78315455 72.52385158 -71.5 70.234375 C-70.613125 69.34492188 -69.72625 68.45546875 -68.8125 67.5390625 C-67.884375 66.61867188 -66.95625 65.69828125 -66 64.75 C-64.6078125 63.34621094 -64.6078125 63.34621094 -63.1875 61.9140625 C-62.300625 61.02976563 -61.41375 60.14546875 -60.5 59.234375 C-59.6853125 58.42194336 -58.870625 57.60951172 -58.03125 56.77246094 C-56 55 -56 55 -54 55 C-54 54.34 -54 53.68 -54 53 C-53.34 53 -52.68 53 -52 53 C-52 52.34 -52 51.68 -52 51 C-50.55706787 49.57583618 -50.55706787 49.57583618 -48.54589844 47.91259766 C-43.89280819 43.95311593 -39.57835931 39.72272717 -35.265625 35.3984375 C-34.06495392 34.19920151 -34.06495392 34.19920151 -32.84002686 32.97573853 C-31.16149137 31.29787916 -29.48420043 29.61877389 -27.80810547 27.93847656 C-25.24689592 25.3718894 -22.68036448 22.81071087 -20.11328125 20.25 C-18.4762416 18.61229988 -16.83951199 16.97428976 -15.203125 15.3359375 C-14.43953674 14.57437347 -13.67594849 13.81280945 -12.88922119 13.02816772 C-9.36147536 9.48486167 -6.11622782 5.91481798 -3 2 C-2.01 1.34 -1.02 0.68 0 0 Z M-3.25830078 47.08178711 C-4.17293251 48.05383651 -5.08676862 49.02663487 -6 50 C-7.07646107 51.06093459 -8.15866073 52.11606846 -9.24560547 53.16625977 C-12.44953321 56.28156587 -15.63844629 59.41176029 -18.82226562 62.54760742 C-20.19712849 63.89712493 -21.57641492 65.24214971 -22.95996094 66.58276367 C-24.96163525 68.52404672 -26.94694475 70.4808152 -28.9296875 72.44140625 C-29.55350311 73.03941544 -30.17731873 73.63742462 -30.82003784 74.2535553 C-32.73789556 76.11150294 -32.73789556 76.11150294 -35 79 C-34.58341078 82.87812719 -32.49703636 85.10021584 -30 88 C-27.95880212 86.38405168 -25.95927063 84.7143618 -24 83 C-24 82.34 -24 81.68 -24 81 C-23.16855469 80.65775391 -23.16855469 80.65775391 -22.3203125 80.30859375 C-19.34048506 78.62805134 -17.2720288 76.49888301 -14.875 74.0625 C-14.00617188 73.18722656 -13.13734375 72.31195313 -12.2421875 71.41015625 C-9.89502107 69.01652414 -9.89502107 69.01652414 -8 66 C-8.103125 65.0925 -8.20625 64.185 -8.3125 63.25 C-7.83777227 58.31283159 -4.62672961 56.1271291 -1 53 C3.29378813 54.92287034 5.77153701 57.62478869 9 61 C7.43681592 64.83690637 5.2046685 67.39154889 2 70 C1.22889893 69.78287354 0.45779785 69.56574707 -0.33666992 69.34204102 C-3.17090063 68.66633084 -3.17090063 68.66633084 -5.5871582 70.90600586 C-6.48265381 71.83292236 -7.37814941 72.75983887 -8.30078125 73.71484375 C-8.7820195 74.20457169 -9.26325775 74.69429962 -9.75907898 75.1988678 C-11.29153941 76.76489156 -12.8018328 78.35047099 -14.3125 79.9375 C-15.34821457 81.00331032 -16.38530919 82.06778142 -17.42382812 83.13085938 C-19.96541045 85.7385619 -22.48751588 88.36421542 -25 91 C-23.12050295 94.57104439 -21.82946843 96.54744301 -18 98 C-17.60208252 97.59160889 -17.20416504 97.18321777 -16.79418945 96.76245117 C-14.97233648 94.89878952 -13.14253329 93.04312816 -11.3125 91.1875 C-10.68666016 90.54490234 -10.06082031 89.90230469 -9.41601562 89.24023438 C-6.15677895 85.94686956 -3.16739378 83.14345875 1 81 C7.33480354 86.34388455 13.19539034 92.08833812 19 98 C22.07678035 96.28239171 22.07678035 96.28239171 25 94 C25 92.68 25 91.36 25 90 C24.01 89.34 23.02 88.68 22 88 C21.35546875 88.19464844 20.7109375 88.38929688 20.046875 88.58984375 C19.03367187 88.79287109 19.03367187 88.79287109 18 89 C16.078125 87.56640625 16.078125 87.56640625 14.25 85.5625 C13.63640625 84.90378906 13.0228125 84.24507812 12.390625 83.56640625 C11.70226562 82.79103516 11.70226562 82.79103516 11 82 C12.76229689 78.22480438 14.76875188 75.69270677 18 73 C20.82984892 73.1603963 21.87088146 73.87586775 23.921875 75.84765625 C24.52515625 76.57855469 25.1284375 77.30945313 25.75 78.0625 C26.67039062 79.16271484 26.67039062 79.16271484 27.609375 80.28515625 C28.06828125 80.85105469 28.5271875 81.41695312 29 82 C28.34 82 27.68 82 27 82 C27.495 83.98 27.495 83.98 28 86 C31.95173357 86.40229511 31.95173357 86.40229511 34.3125 84.25 C36.24209145 82.20842159 36.24209145 82.20842159 35.79891968 80.0770874 C34.86117631 77.63907645 33.74547683 76.36493417 31.90478516 74.51660156 C31.25385895 73.85621887 30.60293274 73.19583618 29.93228149 72.51544189 C29.22501923 71.81425232 28.51775696 71.11306274 27.7890625 70.390625 C27.06512299 69.66381531 26.34118347 68.93700562 25.5953064 68.18817139 C24.06397102 66.65479535 22.52884388 65.12519806 20.99023438 63.59912109 C18.63056843 61.25553049 16.28733713 58.89636167 13.9453125 56.53515625 C12.45669035 55.04851608 10.9671381 53.56280654 9.4765625 52.078125 C8.77334869 51.3688385 8.07013489 50.659552 7.34561157 49.92877197 C6.68838104 49.28099792 6.03115051 48.63322388 5.35400391 47.96582031 C4.77744049 47.39164368 4.20087708 46.81746704 3.60684204 46.22589111 C0.68215934 43.99459367 -0.70113942 44.72449901 -3.25830078 47.08178711 Z M0 59 C-0.66 60.32 -1.32 61.64 -2 63 C-0.515 63.99 -0.515 63.99 1 65 C1.33 63.35 1.66 61.7 2 60 C1.34 59.67 0.68 59.34 0 59 Z M18 79 C18 80.32 18 81.64 18 83 C18.99 83 19.98 83 21 83 C21 81.68 21 80.36 21 79 C20.01 79 19.02 79 18 79 Z M-37 92 C-37 92.99 -37 93.98 -37 95 C-36.34 95.33 -35.68 95.66 -35 96 C-35 94.68 -35 93.36 -35 92 C-35.66 92 -36.32 92 -37 92 Z M-46 96 C-46 99 -46 99 -46 99 Z M-35 96 C-35.33 96.99 -35.66 97.98 -36 99 C-35.34 99 -34.68 99 -34 99 C-34.33 98.01 -34.66 97.02 -35 96 Z M39 98 C39 98.66 39 99.32 39 100 C39.99 99.67 40.98 99.34 42 99 C41.01 98.67 40.02 98.34 39 98 Z M-42 103 C-40.68 103 -39.36 103 -38 103 C-37.34 101.68 -36.68 100.36 -36 99 C-38.22114466 99 -40.35878948 101.65336573 -42 103 Z M-20 102 C-21.65 103.65 -23.3 105.3 -25 107 C-23.63016497 110.16115776 -23.0109362 110.9927092 -20 113 C-17.32854463 112.19838209 -17.32854463 112.19838209 -15 111 C-14.7525 111.5775 -14.505 112.155 -14.25 112.75 C-12.83316683 115.3002997 -11.12372463 117.01785701 -9 119 C-10.5595265 122.82792868 -12.83631836 125.36359864 -16 128 C-19.13866835 128.19616677 -20.28108081 126.77641299 -22.75 124.8125 C-25.46052252 121.42434685 -25 120.17465169 -25 116 C-27.37842577 113.59593616 -27.37842577 113.59593616 -30 112 C-32.64573501 114.22877725 -32.64573501 114.22877725 -35 117 C-34.7403384 120.4773685 -33.18222553 122.18510538 -30.76538086 124.57519531 C-30.08475082 125.25559875 -29.40412079 125.9360022 -28.7028656 126.63702393 C-27.96431839 127.36008728 -27.22577118 128.08315063 -26.46484375 128.828125 C-25.71159317 129.57713074 -24.95834259 130.32613647 -24.18226624 131.09783936 C-21.77428956 133.48902044 -19.35609255 135.86956165 -16.9375 138.25 C-15.30335262 139.86910177 -13.66988045 141.48888532 -12.03710938 143.109375 C-8.03254154 147.08086182 -4.01953193 151.0436621 0 155 C2.97629525 153.66044502 5.06884077 152.18335318 7.37573242 149.88305664 C8.01286667 149.25222672 8.65000092 148.62139679 9.30644226 147.97145081 C9.982621 147.2912236 10.65879974 146.6109964 11.35546875 145.91015625 C12.05771072 145.20982773 12.7599527 144.50949921 13.48347473 143.78794861 C14.96434431 142.30843835 16.44269786 140.82640604 17.91870117 139.34204102 C20.18253395 137.06748956 22.45684447 134.80381027 24.73242188 132.54101562 C26.16991269 131.10220348 27.60678313 129.66277121 29.04296875 128.22265625 C29.72522018 127.54445328 30.40747162 126.86625031 31.11039734 126.16749573 C31.7380751 125.53351364 32.36575287 124.89953156 33.01245117 124.24633789 C33.5666423 123.69055557 34.12083344 123.13477325 34.69181824 122.56214905 C36.23099261 120.91809247 36.23099261 120.91809247 37 118 C36.484375 117.608125 35.96875 117.21625 35.4375 116.8125 C34.963125 116.214375 34.48875 115.61625 34 115 C34.3125 112.3125 34.3125 112.3125 35 110 C29.43332774 112.32729097 25.51104826 117.04076054 21.29882812 121.22070312 C19.7546924 122.74536677 18.19055588 124.24738104 16.625 125.75 C15.63931298 126.7226305 14.65489354 127.6965476 13.671875 128.671875 C12.7756543 129.5494043 11.87943359 130.42693359 10.95605469 131.33105469 C8.61075295 134.53110943 8.72855318 136.12884429 9 140 C7.46875 142.1171875 7.46875 142.1171875 5.5 143.875 C4.8503125 144.47054687 4.200625 145.06609375 3.53125 145.6796875 C3.0259375 146.11539063 2.520625 146.55109375 2 147 C-1.50496269 145.05279851 -4.49967216 143.17349303 -7 140 C-6.65332219 136.51907174 -5.28442239 134.92852725 -2.6875 132.6875 C-2.09324219 132.15511719 -1.49898437 131.62273437 -0.88671875 131.07421875 C-0.26410156 130.71972656 0.35851562 130.36523438 1 130 C1.59159912 130.24008789 2.18319824 130.48017578 2.79272461 130.72753906 C5.22292333 131.29000243 5.22292333 131.29000243 7.47363281 129.09399414 C8.82473145 127.70361938 8.82473145 127.70361938 10.203125 126.28515625 C10.6857782 125.79542831 11.1684314 125.30570038 11.66571045 124.8011322 C13.20591635 123.23291773 14.72785304 121.6482297 16.25 120.0625 C17.29050966 118.99691587 18.33216334 117.93244754 19.375 116.86914062 C21.93007226 114.25891489 24.46903497 111.63363148 27 109 C25.02 106.69 23.04 104.38 21 102 C16.88262929 103.02934268 16.18445789 103.47655676 13.46875 106.4140625 C12.50001953 107.43113281 12.50001953 107.43113281 11.51171875 108.46875 C10.16667114 109.9104321 8.82553819 111.3557761 7.48828125 112.8046875 C6.84246094 113.48015625 6.19664062 114.155625 5.53125 114.8515625 C4.94923828 115.47885254 4.36722656 116.10614258 3.76757812 116.75244141 C2 118 2 118 -0.02954102 117.8762207 C-2.22989482 116.89777072 -3.41905418 115.88446238 -5.05859375 114.12890625 C-5.60966797 113.55462891 -6.16074219 112.98035156 -6.72851562 112.38867188 C-7.86406593 111.17525526 -8.9994835 109.96171441 -10.13476562 108.74804688 C-13.21650896 105.53684875 -15.58762316 103.24536244 -20 102 Z M35 102 C35 103.32 35 104.64 35 106 C35.66 104.68 36.32 103.36 37 102 C36.34 102 35.68 102 35 102 Z M36 107 C36 107.66 36 108.32 36 109 C36.66 109 37.32 109 38 109 C38 108.34 38 107.68 38 107 C37.34 107 36.68 107 36 107 Z M40 109 C40.33 109.66 40.66 110.32 41 111 C41.33 110.34 41.66 109.68 42 109 C41.34 109 40.68 109 40 109 Z M-18 117 C-18.66 118.32 -19.32 119.64 -20 121 C-18.515 121.99 -18.515 121.99 -17 123 C-16.34 121.68 -15.68 120.36 -15 119 C-15.99 118.34 -16.98 117.68 -18 117 Z M0 136 C-0.33 137.32 -0.66 138.64 -1 140 C0.32 140 1.64 140 3 140 C3 139.01 3 138.02 3 137 C2.01 136.67 1.02 136.34 0 136 Z " fill="#ABABAB" transform="translate(286,107)"/>
<path d="M0 0 C0.07438973 5.30188966 0.12871511 10.60347268 0.16479492 15.90576172 C0.1798424 17.70789892 0.2002853 19.50999973 0.22631836 21.31201172 C0.26288021 23.90862021 0.27976681 26.50474275 0.29296875 29.1015625 C0.30845261 29.9017984 0.32393646 30.7020343 0.33988953 31.52651978 C0.34168424 37.54870157 -0.75630919 41.67610199 -5.07617188 46.15039062 C-5.86572266 46.81232422 -6.65527344 47.47425781 -7.46875 48.15625 C-11.36075792 51.527815 -15.09633337 54.99821109 -18.71875 58.65625 C-19.19393066 59.13481445 -19.66911133 59.61337891 -20.15869141 60.10644531 C-21.60790197 61.5688974 -23.05436997 63.03400899 -24.5 64.5 C-26.44502694 66.47163643 -28.39338711 68.43989356 -30.34375 70.40625 C-31.19130859 71.26541016 -32.03886719 72.12457031 -32.91210938 73.00976562 C-35 75 -35 75 -37 76 C-36.608125 76.721875 -36.21625 77.44375 -35.8125 78.1875 C-35 81 -35 81 -36.0625 83.75 C-38.42753145 86.49648813 -39.53952364 86.34086165 -43 87 C-45.93854074 89.18802581 -45.93854074 89.18802581 -48 92 C-48.20008333 95.20133333 -46.73483699 96.32249555 -44.6875 98.8125 C-42.30285997 101.22357529 -42.30285997 101.22357529 -39.875 101 C-37.91444622 100.11992473 -37.91444622 100.11992473 -36.75 98.375 C-35 97 -35 97 -33.03515625 97.02734375 C-31.01404415 97.28664284 -29.00533361 97.63838246 -27 98 C-27.99 98.495 -27.99 98.495 -29 99 C-28.67 100.98 -28.34 102.96 -28 105 C-27.401875 105.12375 -26.80375 105.2475 -26.1875 105.375 C-24 106 -24 106 -21 108 C-19.35 107.67 -17.7 107.34 -16 107 C-13.69 109.64 -11.38 112.28 -9 115 C-10.56613695 118.13227391 -11.55806574 119.89352459 -13.875 122.3125 C-14.36742187 122.84488281 -14.85984375 123.37726563 -15.3671875 123.92578125 C-17 125 -17 125 -18.9921875 124.8359375 C-22.44812738 123.39708315 -24.86562597 121.05314431 -27 118 C-27.125 114.8125 -27.125 114.8125 -27 112 C-28.88077873 110.08743288 -28.88077873 110.08743288 -31 109 C-32.98 110.65 -34.96 112.3 -37 114 C-41.42761914 112.60846256 -43.9556255 110.47928514 -47 107 C-47 106.34 -47 105.68 -47 105 C-47.86625 104.62875 -47.86625 104.62875 -48.75 104.25 C-51.32939979 102.81700012 -53.06121592 101.21575324 -55 99 C-55 98.34 -55 97.68 -55 97 C-76.78 96.505 -76.78 96.505 -99 96 C-94.78640421 91.08413825 -90.68979467 86.6496481 -86.05078125 82.2109375 C-83.89088979 80.03832026 -83.89088979 80.03832026 -82.35546875 77.2265625 C-81.90816406 76.49179688 -81.46085937 75.75703125 -81 75 C-80.34 75 -79.68 75 -79 75 C-78.7628125 74.43829102 -78.525625 73.87658203 -78.28125 73.29785156 C-76.70680643 70.47417342 -74.78315455 68.52385158 -72.5 66.234375 C-71.613125 65.34492188 -70.72625 64.45546875 -69.8125 63.5390625 C-68.884375 62.61867187 -67.95625 61.69828125 -67 60.75 C-65.6078125 59.34621094 -65.6078125 59.34621094 -64.1875 57.9140625 C-63.300625 57.02976563 -62.41375 56.14546875 -61.5 55.234375 C-60.6853125 54.42194336 -59.870625 53.60951172 -59.03125 52.77246094 C-57 51 -57 51 -55 51 C-55 50.34 -55 49.68 -55 49 C-54.34 49 -53.68 49 -53 49 C-53 48.34 -53 47.68 -53 47 C-51.55459595 45.57830811 -51.55459595 45.57830811 -49.54150391 43.91699219 C-44.88446955 39.95439087 -40.61560808 35.69103616 -36.3359375 31.328125 C-34.70341331 29.67810011 -33.07059205 28.0283691 -31.4375 26.37890625 C-28.89543689 23.80580632 -26.35579576 21.23044693 -23.82128906 18.64990234 C-21.35376388 16.14003051 -18.87687214 13.63971824 -16.3984375 11.140625 C-15.64517181 10.3687384 -14.89190613 9.59685181 -14.11581421 8.80157471 C-5.35658682 0 -5.35658682 0 0 0 Z M-19 113 C-19.66 114.32 -20.32 115.64 -21 117 C-19.515 117.99 -19.515 117.99 -18 119 C-17.34 117.68 -16.68 116.36 -16 115 C-16.99 114.34 -17.98 113.68 -19 113 Z " fill="#ABABAB" transform="translate(287,111)"/>
<path d="M0 0 C3.53581987 1.98200998 6.34190867 4.08691397 9.21456909 6.94041443 C10.42606377 8.13694641 10.42606377 8.13694641 11.66203308 9.35765076 C12.53394791 10.22890091 13.40586273 11.10015106 14.30419922 11.99780273 C15.23312485 12.91840485 16.16205048 13.83900696 17.11912537 14.7875061 C19.6587773 17.30527795 22.19188588 19.82953273 24.72316504 22.35571933 C26.30464252 23.93354887 27.88740916 25.51007351 29.47061539 27.08616829 C34.99263205 32.58372364 40.50893467 38.08694608 46.02050781 43.5949707 C51.1614809 48.73229983 56.31546616 53.85631979 61.47546947 58.97452778 C65.90559775 63.37002278 70.32611457 67.77503032 74.73930943 72.18752629 C77.3753141 74.82273647 80.01517926 77.45378261 82.6649437 80.07516289 C85.61464526 82.99396536 88.544167 85.93223193 91.47216797 88.87280273 C92.35622818 89.74202866 93.24028839 90.61125458 94.15113831 91.50682068 C95.33725456 92.7075824 95.33725456 92.7075824 96.54733276 93.93260193 C97.24232313 94.62558097 97.9373135 95.31856001 98.65336418 96.03253841 C100 98 100 98 99.87594795 100.11358738 C98.5808343 102.90270143 96.45714655 104.23589479 94 106 C94.33 104.02 94.66 102.04 95 100 C93.33445068 100.00785522 93.33445068 100.00785522 91.63525391 100.01586914 C87.52409671 100.03393985 83.41294304 100.04543962 79.30175781 100.05493164 C77.52082733 100.05996711 75.739901 100.06679581 73.95898438 100.07543945 C71.40233335 100.08753942 68.84573688 100.09323609 66.2890625 100.09765625 C65.49005524 100.10281754 64.69104797 100.10797882 63.86782837 100.11329651 C58.22774341 100.11387171 58.22774341 100.11387171 56 99 C56 98.34 56 97.68 56 97 C55.34 97 54.68 97 54 97 C54 96.34 54 95.68 54 95 C53.34 95 52.68 95 52 95 C52 94.34 52 93.68 52 93 C51.34 93 50.68 93 50 93 C50 92.34 50 91.68 50 91 C49.34 91 48.68 91 48 91 C48 90.34 48 89.68 48 89 C47.34 89 46.68 89 46 89 C46 88.34 46 87.68 46 87 C45.34 87 44.68 87 44 87 C44 86.34 44 85.68 44 85 C43.01 84.67 42.02 84.34 41 84 C41 83.34 41 82.68 41 82 C36.53204949 83.40421302 34.23064288 85.6843402 31 89 C30.01 89.33 29.02 89.66 28 90 C27.26676204 92.01508358 27.26676204 92.01508358 27 94 C24.48916886 92.74458443 24.12874554 91.49936512 23 89 C22.26394531 89.24621094 21.52789062 89.49242187 20.76953125 89.74609375 C18 90 18 90 15.76171875 88.34765625 C14.73498047 87.21650391 14.73498047 87.21650391 13.6875 86.0625 C12.64142578 84.93521484 12.64142578 84.93521484 11.57421875 83.78515625 C11.05472656 83.19605469 10.53523438 82.60695313 10 82 C11.30444568 79.14885445 12.70552431 76.95252254 14.875 74.6875 C15.61363281 73.88892578 15.61363281 73.88892578 16.3671875 73.07421875 C18 72 18 72 19.9609375 72.1171875 C22.43395235 73.18787975 23.87374061 74.50912229 25.75 76.4375 C26.36359375 77.05496094 26.9771875 77.67242187 27.609375 78.30859375 C29 80 29 80 29 82 C28.34 82 27.68 82 27 82 C27.66 83.32 28.32 84.64 29 86 C31.46800047 84.84826645 33.04783565 83.95216435 35 82 C34.67161942 78.64403821 33.33375608 76.95880154 30.99658203 74.62426758 C30.36567657 73.98713333 29.73477112 73.34999908 29.08474731 72.69355774 C28.39935883 72.017379 27.71397034 71.34120026 27.0078125 70.64453125 C26.30606903 69.94228928 25.60432556 69.2400473 24.88131714 68.51652527 C23.39696303 67.0345106 21.90891728 65.55618555 20.41748047 64.08129883 C18.1320264 61.81945381 15.86019552 59.54457122 13.58984375 57.26757812 C12.14662422 55.82993478 10.70263927 54.39305932 9.2578125 52.95703125 C8.57647247 52.27477982 7.89513245 51.59252838 7.19314575 50.88960266 C6.55593597 50.2619249 5.9187262 49.63424713 5.26220703 48.98754883 C4.70340851 48.4333577 4.14460999 47.87916656 3.56887817 47.30818176 C1.91819415 45.77013491 1.91819415 45.77013491 -1 45 C-0.84152588 44.34749268 -0.68305176 43.69498535 -0.51977539 43.02270508 C0.13262935 39.22870641 0.23217352 35.4755131 0.31640625 31.63671875 C0.33718735 30.84473587 0.35796844 30.05275299 0.37937927 29.23677063 C0.44447804 26.72043072 0.50357423 24.20399128 0.5625 21.6875 C0.605723 19.97590139 0.64933848 18.26431265 0.69335938 16.55273438 C0.80011847 12.36859016 0.90149635 8.18434638 1 4 C-2.465 5.485 -2.465 5.485 -6 7 C-4.60667426 3.63279613 -3.0210714 2.0140476 0 0 Z M18 79 C18 80.32 18 81.64 18 83 C18.99 83 19.98 83 21 83 C21 81.68 21 80.36 21 79 C20.01 79 19.02 79 18 79 Z " fill="#959595" transform="translate(286,107)"/>
<path d="M0 0 C0.66 0.33 1.32 0.66 2 1 C-2.95 5.95 -7.9 10.9 -13 16 C-10.09832031 16.01417969 -7.19664062 16.02835938 -4.20703125 16.04296875 C-1.39042597 16.07360048 1.42594424 16.11268628 4.24243164 16.15258789 C6.19677389 16.17575551 8.15124077 16.19016071 10.10571289 16.19555664 C12.91892043 16.20485532 15.73017112 16.24586475 18.54296875 16.29296875 C19.41398727 16.2890361 20.2850058 16.28510345 21.18241882 16.28105164 C25.61291102 16.38712285 27.41371073 16.51580115 30.9387207 19.42700195 C31.61894287 20.27609131 32.29916504 21.12518066 33 22 C33.804375 22.61875 34.60875 23.2375 35.4375 23.875 C37.67408918 25.72973249 39.20775295 27.43687775 41 29.6875 C43.5580526 32.79793414 45.01201832 33.35330027 49 34 C49.59167969 35.01743286 49.59167969 35.01743286 50.1953125 36.05541992 C52.66737621 40.08891023 55.85162072 43.15690574 59.1875 46.48828125 C60.23587036 47.5430793 60.23587036 47.5430793 61.30541992 48.6191864 C62.77886455 50.09835775 64.25491503 51.57493734 65.73339844 53.04907227 C68.00085361 55.31335241 70.25462522 57.59067249 72.5078125 59.86914062 C73.94189768 61.30549733 75.37676668 62.74107197 76.8125 64.17578125 C77.48756592 64.86005692 78.16263184 65.54433258 78.8581543 66.24934387 C79.80428589 67.18613228 79.80428589 67.18613228 80.76953125 68.1418457 C81.32229736 68.69524124 81.87506348 69.24863678 82.44458008 69.81880188 C84.07267968 71.30239215 84.07267968 71.30239215 87 71 C86.505 72.485 86.505 72.485 86 74 C85.34 74 84.68 74 84 74 C84.33 86.21 84.66 98.42 85 111 C85.66 111 86.32 111 87 111 C87.33 111.99 87.66 112.98 88 114 C87.34 114.66 86.68 115.32 86 116 C82.7421956 115.66456423 81.08340476 114.45510924 78.81922913 112.17326355 C78.21513718 111.57185043 77.61104523 110.97043732 76.98864746 110.35079956 C76.33763062 109.68742584 75.68661377 109.02405212 75.01586914 108.34057617 C74.32105942 107.64459824 73.62624969 106.9486203 72.91038513 106.23155212 C70.611606 103.92557653 68.32352694 101.60926974 66.03515625 99.29296875 C64.43932166 97.68899795 62.84274856 96.0857616 61.24546814 94.48323059 C57.03727206 90.25789721 52.83771508 86.0240847 48.64031982 81.7880249 C41.92742173 75.01600053 35.20191261 68.25650689 28.47573662 61.49767494 C26.12820339 59.13619734 23.78453952 56.77093268 21.44142151 54.40507507 C19.99887484 52.95250107 18.55624711 51.50000756 17.11352539 50.04760742 C16.14003647 49.06165588 16.14003647 49.06165588 15.1468811 48.05578613 C11.90927864 44.80238904 8.63678507 41.8144839 5 39 C3.9027709 37.82311258 2.83841919 36.61454246 1.8125 35.375 C-3.22030514 29.49048937 -8.53409046 23.31060636 -15 19 C-14.83566075 13.27003831 -10.82273925 10.37524908 -6.9375 6.6875 C-6.27427734 6.04232422 -5.61105469 5.39714844 -4.92773438 4.73242188 C-3.29382329 3.14552982 -1.65131853 1.56873672 0 0 Z " fill="#969696" transform="translate(202,190)"/>
<path d="M0 0 C3.21524305 1.40844718 5.32183868 3.10344786 7.75 5.625 C8.67039062 6.57246094 8.67039062 6.57246094 9.609375 7.5390625 C10.29773438 8.26222656 10.29773438 8.26222656 11 9 C9.70247254 11.82258343 8.31712321 14.04801938 6.1875 16.3125 C5.46626953 17.11107422 5.46626953 17.11107422 4.73046875 17.92578125 C4.15941406 18.28027344 3.58835937 18.63476562 3 19 C2.24412598 18.76442383 1.48825195 18.52884766 0.70947266 18.28613281 C-2.14406825 17.67897406 -2.14406825 17.67897406 -4.49536133 19.81420898 C-5.77576294 21.14174194 -5.77576294 21.14174194 -7.08203125 22.49609375 C-7.54107346 22.96362564 -8.00011566 23.43115753 -8.47306824 23.91285706 C-9.93423114 25.40757481 -11.37315999 26.92178586 -12.8125 28.4375 C-13.80003597 29.45513293 -14.78895369 30.47142692 -15.77929688 31.48632812 C-18.20241626 33.97555591 -20.60601908 36.48269949 -23 39 C-21.95125002 41.62187494 -21.35068687 42.79371361 -18.875 44.25 C-18.25625 44.4975 -17.6375 44.745 -17 45 C-16.60208252 44.59160889 -16.20416504 44.18321777 -15.79418945 43.76245117 C-13.97233648 41.89878952 -12.14253329 40.04312816 -10.3125 38.1875 C-9.68666016 37.54490234 -9.06082031 36.90230469 -8.41601562 36.24023438 C-5.15677895 32.94686956 -2.16739378 30.14345875 2 28 C7.61293957 32.73493785 12.71923497 37.75968118 17.703125 43.15625 C19.81120113 45.28726129 19.81120113 45.28726129 22.296875 44.78125 C22.85890625 44.5234375 23.4209375 44.265625 24 44 C22.60506067 48.565256 20.66587247 50.07030683 17 53 C15.84755545 54.14717604 14.71193021 55.31139413 13.58984375 56.48828125 C12.99236328 57.11154297 12.39488281 57.73480469 11.77929688 58.37695312 C10.53980078 59.67954128 9.30813196 60.98961778 8.08398438 62.30664062 C7.48779297 62.92345703 6.89160156 63.54027344 6.27734375 64.17578125 C5.74359131 64.74208252 5.20983887 65.30838379 4.65991211 65.8918457 C3 67 3 67 0.98632812 66.85595703 C-1.24012127 65.89652591 -2.40861421 64.8956411 -4.05859375 63.12890625 C-4.60966797 62.55462891 -5.16074219 61.98035156 -5.72851562 61.38867188 C-6.86406593 60.17525526 -7.9994835 58.96171441 -9.13476562 57.74804688 C-12.21650896 54.53684875 -14.58762316 52.24536244 -19 51 C-19.78375 51.99 -20.5675 52.98 -21.375 54 C-22.24125 54.99 -23.1075 55.98 -24 57 C-24.66 57 -25.32 57 -26 57 C-26.33 55.02 -26.66 53.04 -27 51 C-29.80045046 50.14349347 -29.80045046 50.14349347 -33 50 C-34.37310707 51.29233607 -35.71034824 52.62437146 -37 54 C-39.64425924 53.78953855 -40.78011813 53.21029986 -42.703125 51.37109375 C-43.21359375 50.73300781 -43.7240625 50.09492188 -44.25 49.4375 C-44.77078125 48.79683594 -45.2915625 48.15617187 -45.828125 47.49609375 C-46.21484375 47.00238281 -46.6015625 46.50867188 -47 46 C-45.23770311 42.22480438 -43.23124812 39.69270677 -40 37 C-37.6875 37.1875 -37.6875 37.1875 -36 38 C-34.17339803 33.87851657 -34.17339803 33.87851657 -34.875 29.625 C-35.24625 29.08875 -35.6175 28.5525 -36 28 C-35.34 27.67 -34.68 27.34 -34 27 C-32.68 29.31 -31.36 31.62 -30 34 C-23.86324896 34 -15.86651848 22.98181964 -11.59375 18.7265625 C-9.80963358 16.88428187 -9.80963358 16.88428187 -8 14 C-8.12375 13.113125 -8.2475 12.22625 -8.375 11.3125 C-7.77530842 6.01522436 -3.86695165 3.40084587 0 0 Z M1 7 C0.34 8.32 -0.32 9.64 -1 11 C0.485 11.99 0.485 11.99 2 13 C2.33 11.35 2.66 9.7 3 8 C2.34 7.67 1.68 7.34 1 7 Z M-36 40 C-36 40.99 -36 41.98 -36 43 C-35.34 43.33 -34.68 43.66 -34 44 C-34 42.68 -34 41.36 -34 40 C-34.66 40 -35.32 40 -36 40 Z M-45 44 C-45 47 -45 47 -45 47 Z M-34 44 C-34.33 44.99 -34.66 45.98 -35 47 C-34.34 47 -33.68 47 -33 47 C-33.33 46.01 -33.66 45.02 -34 44 Z M-41 51 C-39.68 51 -38.36 51 -37 51 C-36.34 49.68 -35.68 48.36 -35 47 C-37.22114466 47 -39.35878948 49.65336573 -41 51 Z " fill="#A3A3A3" transform="translate(285,159)"/>
<path d="M0 0 C3.21524305 1.40844718 5.32183868 3.10344786 7.75 5.625 C8.67039062 6.57246094 8.67039062 6.57246094 9.609375 7.5390625 C10.29773438 8.26222656 10.29773438 8.26222656 11 9 C9.70247254 11.82258343 8.31712321 14.04801938 6.1875 16.3125 C5.46626953 17.11107422 5.46626953 17.11107422 4.73046875 17.92578125 C4.15941406 18.28027344 3.58835937 18.63476562 3 19 C2.24412598 18.76442383 1.48825195 18.52884766 0.70947266 18.28613281 C-2.14406825 17.67897406 -2.14406825 17.67897406 -4.49536133 19.81420898 C-5.77576294 21.14174194 -5.77576294 21.14174194 -7.08203125 22.49609375 C-7.54107346 22.96362564 -8.00011566 23.43115753 -8.47306824 23.91285706 C-9.93423114 25.40757481 -11.37315999 26.92178586 -12.8125 28.4375 C-13.80003597 29.45513293 -14.78895369 30.47142692 -15.77929688 31.48632812 C-18.20241626 33.97555591 -20.60601908 36.48269949 -23 39 C-21.48601545 42.78496138 -20.9855604 43.0072198 -17 45 C-12.38 40.38 -7.76 35.76 -3 31 C-3 34 -3 34 -4.19335938 35.53393555 C-4.73798828 36.062854 -5.28261719 36.59177246 -5.84375 37.13671875 C-6.43027344 37.71357422 -7.01679688 38.29042969 -7.62109375 38.88476562 C-8.24113281 39.47966797 -8.86117187 40.07457031 -9.5 40.6875 C-10.12003906 41.29400391 -10.74007812 41.90050781 -11.37890625 42.52539062 C-12.91264707 44.02373743 -14.45548198 45.51276493 -16 47 C-15.34 48.65 -14.68 50.3 -14 52 C-15.65 51.67 -17.3 51.34 -19 51 C-19.78375 51.99 -20.5675 52.98 -21.375 54 C-22.24125 54.99 -23.1075 55.98 -24 57 C-24.66 57 -25.32 57 -26 57 C-26.33 55.02 -26.66 53.04 -27 51 C-29.80045046 50.14349347 -29.80045046 50.14349347 -33 50 C-34.37310707 51.29233607 -35.71034824 52.62437146 -37 54 C-39.64425924 53.78953855 -40.78011813 53.21029986 -42.703125 51.37109375 C-43.21359375 50.73300781 -43.7240625 50.09492188 -44.25 49.4375 C-44.77078125 48.79683594 -45.2915625 48.15617187 -45.828125 47.49609375 C-46.21484375 47.00238281 -46.6015625 46.50867188 -47 46 C-45.23770311 42.22480438 -43.23124812 39.69270677 -40 37 C-37.6875 37.1875 -37.6875 37.1875 -36 38 C-34.17339803 33.87851657 -34.17339803 33.87851657 -34.875 29.625 C-35.24625 29.08875 -35.6175 28.5525 -36 28 C-35.34 27.67 -34.68 27.34 -34 27 C-32.68 29.31 -31.36 31.62 -30 34 C-23.86324896 34 -15.86651848 22.98181964 -11.59375 18.7265625 C-9.80963358 16.88428187 -9.80963358 16.88428187 -8 14 C-8.12375 13.113125 -8.2475 12.22625 -8.375 11.3125 C-7.77530842 6.01522436 -3.86695165 3.40084587 0 0 Z M1 7 C0.34 8.32 -0.32 9.64 -1 11 C0.485 11.99 0.485 11.99 2 13 C2.33 11.35 2.66 9.7 3 8 C2.34 7.67 1.68 7.34 1 7 Z M-36 40 C-36 40.99 -36 41.98 -36 43 C-35.34 43.33 -34.68 43.66 -34 44 C-34 42.68 -34 41.36 -34 40 C-34.66 40 -35.32 40 -36 40 Z M-45 44 C-45 47 -45 47 -45 47 Z M-34 44 C-34.33 44.99 -34.66 45.98 -35 47 C-34.34 47 -33.68 47 -33 47 C-33.33 46.01 -33.66 45.02 -34 44 Z M-41 51 C-39.68 51 -38.36 51 -37 51 C-36.34 49.68 -35.68 48.36 -35 47 C-37.22114466 47 -39.35878948 49.65336573 -41 51 Z " fill="#8A8A8A" transform="translate(285,159)"/>
<path d="M0 0 C0 3.90838866 -1.50567876 5.11594107 -4 8 C-2.02 7.34 -0.04 6.68 2 6 C-0.92656664 9.59549616 -3.92333124 12.96394491 -7.29296875 16.1484375 C-8.17335815 16.99015503 -8.17335815 16.99015503 -9.0715332 17.84887695 C-10.26222878 18.98025535 -11.46509814 20.09897462 -12.68041992 21.20385742 C-16.25373807 24.49061555 -16.25373807 24.49061555 -17.1328125 29.12890625 C-17.08898437 30.07636719 -17.04515625 31.02382812 -17 32 C-18.75 34.3359375 -18.75 34.3359375 -21 36.375 C-21.7425 37.06335938 -22.485 37.75171875 -23.25 38.4609375 C-24.11625 39.22277344 -24.11625 39.22277344 -25 40 C-28.9773775 37.84085222 -32.09939422 35.49778933 -35 32 C-34.7500266 28.27312385 -32.90389484 26.58135445 -30.1875 24.1875 C-29.50042969 23.56230469 -28.81335938 22.93710938 -28.10546875 22.29296875 C-27.41066406 21.86628906 -26.71585937 21.43960938 -26 21 C-25.40388916 21.23557617 -24.80777832 21.47115234 -24.19360352 21.71386719 C-23.46971436 21.80829102 -22.7458252 21.90271484 -22 22 C-19.37200693 20.06883109 -19.37200693 20.06883109 -16.796875 17.28515625 C-16.3142218 16.79542831 -15.8315686 16.30570038 -15.33428955 15.8011322 C-13.79408365 14.23291773 -12.27214696 12.6482297 -10.75 11.0625 C-9.70949034 9.99691587 -8.66783666 8.93244754 -7.625 7.86914062 C-5.06992774 5.25891489 -2.53096503 2.63363148 0 0 Z M-27 28 C-27.33 29.32 -27.66 30.64 -28 32 C-26.68 32 -25.36 32 -24 32 C-24 31.01 -24 30.02 -24 29 C-24.99 28.67 -25.98 28.34 -27 28 Z " fill="#5B5B5B" transform="translate(313,215)"/>
<path d="M0 0 C3.21524305 1.40844718 5.32183868 3.10344786 7.75 5.625 C8.67039062 6.57246094 8.67039062 6.57246094 9.609375 7.5390625 C10.29773438 8.26222656 10.29773438 8.26222656 11 9 C9.70247254 11.82258343 8.31712321 14.04801938 6.1875 16.3125 C5.46626953 17.11107422 5.46626953 17.11107422 4.73046875 17.92578125 C4.15941406 18.28027344 3.58835937 18.63476562 3 19 C2.24340088 18.76659912 1.48680176 18.53319824 0.70727539 18.29272461 C-2.13484907 17.68210433 -2.13484907 17.68210433 -4.47949219 19.76660156 C-5.75034668 21.06549316 -5.75034668 21.06549316 -7.046875 22.390625 C-7.97371094 23.32777344 -8.90054687 24.26492187 -9.85546875 25.23046875 C-10.33032715 25.72595215 -10.80518555 26.22143555 -11.29443359 26.73193359 C-12.74483374 28.24461191 -14.21547797 29.73491661 -15.69140625 31.22265625 C-20.75731456 36.02303662 -20.75731456 36.02303662 -24 42 C-24.78808594 40.32299805 -24.78808594 40.32299805 -25 38 C-23.14160156 35.54223633 -23.14160156 35.54223633 -20.390625 32.83203125 C-19.90801208 32.35174973 -19.42539917 31.8714682 -18.92816162 31.37663269 C-17.90487491 30.36309127 -16.87557207 29.35559344 -15.84082031 28.35375977 C-14.25781127 26.82006792 -12.69417234 25.26858622 -11.1328125 23.71289062 C-3.46727561 16.15575854 -3.46727561 16.15575854 0 15 C-0.33 14.34 -0.66 13.68 -1 13 C-1.66 13 -2.32 13 -3 13 C-4.60059293 14.62092592 -4.60059293 14.62092592 -6.25 16.6875 C-9.25954469 20.23964603 -12.33524535 23.13970369 -16 26 C-16.66 25.67 -17.32 25.34 -18 25 C-17.44570313 24.45730469 -16.89140625 23.91460937 -16.3203125 23.35546875 C-15.59585937 22.64003906 -14.87140625 21.92460937 -14.125 21.1875 C-13.40570313 20.47980469 -12.68640625 19.77210938 -11.9453125 19.04296875 C-9.84641063 16.95600806 -9.84641063 16.95600806 -8 14 C-8.12375 13.113125 -8.2475 12.22625 -8.375 11.3125 C-7.77530842 6.01522436 -3.86695165 3.40084587 0 0 Z M1 7 C0.34 8.32 -0.32 9.64 -1 11 C0.485 11.99 0.485 11.99 2 13 C2.33 11.35 2.66 9.7 3 8 C2.34 7.67 1.68 7.34 1 7 Z " fill="#757575" transform="translate(285,159)"/>
<path d="M0 0 C2.47301485 1.07069225 3.91280311 2.39193479 5.7890625 4.3203125 C6.70945312 5.24650391 6.70945312 5.24650391 7.6484375 6.19140625 C9.0390625 7.8828125 9.0390625 7.8828125 9.0390625 9.8828125 C8.3790625 9.8828125 7.7190625 9.8828125 7.0390625 9.8828125 C7.6990625 11.2028125 8.3590625 12.5228125 9.0390625 13.8828125 C12.8342756 12.39183592 14.64948981 10.12580401 17.0390625 6.8828125 C17.0390625 10.8828125 17.0390625 10.8828125 15.83203125 12.55078125 C15.03732422 13.30294922 15.03732422 13.30294922 14.2265625 14.0703125 C13.70449219 14.57949219 13.18242187 15.08867187 12.64453125 15.61328125 C11.0390625 16.8828125 11.0390625 16.8828125 8.0390625 17.8828125 C7.30582454 19.89789608 7.30582454 19.89789608 7.0390625 21.8828125 C4.52823136 20.62739693 4.16780804 19.38217762 3.0390625 16.8828125 C2.30300781 17.12902344 1.56695312 17.37523437 0.80859375 17.62890625 C-1.9609375 17.8828125 -1.9609375 17.8828125 -4.19921875 16.23046875 C-5.22595703 15.09931641 -5.22595703 15.09931641 -6.2734375 13.9453125 C-6.97082031 13.19378906 -7.66820312 12.44226563 -8.38671875 11.66796875 C-8.90621094 11.07886719 -9.42570312 10.48976562 -9.9609375 9.8828125 C-8.65649182 7.03166695 -7.25541319 4.83533504 -5.0859375 2.5703125 C-4.34730469 1.77173828 -4.34730469 1.77173828 -3.59375 0.95703125 C-1.9609375 -0.1171875 -1.9609375 -0.1171875 0 0 Z M-1.9609375 6.8828125 C-1.9609375 8.2028125 -1.9609375 9.5228125 -1.9609375 10.8828125 C-0.9709375 10.8828125 0.0190625 10.8828125 1.0390625 10.8828125 C1.0390625 9.5628125 1.0390625 8.2428125 1.0390625 6.8828125 C0.0490625 6.8828125 -0.9409375 6.8828125 -1.9609375 6.8828125 Z " fill="#626262" transform="translate(305.9609375,179.1171875)"/>
<path d="M0 0 C0.721875 0.515625 1.44375 1.03125 2.1875 1.5625 C5.24051857 3.49001111 5.24051857 3.49001111 10 2 C12.31 4.64 14.62 7.28 17 10 C15.43386305 13.13227391 14.44193426 14.89352459 12.125 17.3125 C11.63257813 17.84488281 11.14015625 18.37726563 10.6328125 18.92578125 C9 20 9 20 7.0078125 19.8359375 C3.54860352 18.39572209 1.14250645 16.05058866 -1 13 C-1.125 9.9375 -1.125 9.9375 -1 7 C-2.87769142 4.15079947 -2.87769142 4.15079947 -5 2 C-2.04590299 3.37154504 0.44008376 4.98863724 3 7 C3 6.34 3 5.68 3 5 C2.505 4.505 2.01 4.01 1.5 3.5 C1.005 3.005 0.51 2.51 0 2 C0 1.34 0 0.68 0 0 Z M7 8 C6.34 9.32 5.68 10.64 5 12 C6.485 12.99 6.485 12.99 8 14 C8.66 12.68 9.32 11.36 10 10 C9.01 9.34 8.02 8.68 7 8 Z " fill="#8F8F8F" transform="translate(261,216)"/>
<path d="M0 0 C2.12038635 2.61514317 4.13091744 5.19637616 6 8 C7.32 7.34 8.64 6.68 10 6 C9.3503125 6.68835938 9.3503125 6.68835938 8.6875 7.390625 C8.130625 8.00421875 7.57375 8.6178125 7 9.25 C6.443125 9.85328125 5.88625 10.4565625 5.3125 11.078125 C3.62402557 13.162653 3.62402557 13.162653 4 17 C3.67 17.99 3.34 18.98 3 20 C2.01 20 1.02 20 0 20 C-0.474375 20.474375 -0.94875 20.94875 -1.4375 21.4375 C-3 23 -3 23 -4.875 24 C-7 24 -7 24 -9.75 21.5625 C-10.4925 20.716875 -11.235 19.87125 -12 19 C-10.4404735 15.17207132 -8.16368164 12.63640136 -5 10 C-2.6875 10.1875 -2.6875 10.1875 -1 11 C0.82660197 6.87851657 0.82660197 6.87851657 0.125 2.625 C-0.24625 2.08875 -0.6175 1.5525 -1 1 C-0.67 0.67 -0.34 0.34 0 0 Z M-1 13 C-1 13.99 -1 14.98 -1 16 C-0.34 16.33 0.32 16.66 1 17 C1 15.68 1 14.36 1 13 C0.34 13 -0.32 13 -1 13 Z M-10 17 C-10 20 -10 20 -10 20 Z " fill="#393939" transform="translate(250,186)"/>
<path d="M0 0 C3.21043882 1.38188453 5.04936365 2.92421903 7.25 5.625 C7.77078125 6.25664062 8.2915625 6.88828125 8.828125 7.5390625 C9.40820312 8.26222656 9.40820312 8.26222656 10 9 C8.79040384 10.37167605 7.55648812 11.72193609 6.3125 13.0625 C5.62800781 13.81660156 4.94351562 14.57070312 4.23828125 15.34765625 C2 17 2 17 -0.65625 16.65625 C-1.4296875 16.4396875 -2.203125 16.223125 -3 16 C-4.8354799 17.33378575 -4.8354799 17.33378575 -6 19 C-5.814375 18.38125 -5.62875 17.7625 -5.4375 17.125 C-4.76313824 14.95839822 -4.76313824 14.95839822 -6 13 C-5.67 12.01 -5.34 11.02 -5 10 C-5.66 10 -6.32 10 -7 10 C-7 9.01 -7 8.02 -7 7 C-6.34 7 -5.68 7 -5 7 C-4.67 7.66 -4.34 8.32 -4 9 C-4 8.01 -4 7.02 -4 6 C-2.72245446 3.9639118 -1.39300182 1.95890881 0 0 Z M0 2 C0 2.66 0 3.32 0 4 C0.99 3.67 1.98 3.34 3 3 C2.01 2.67 1.02 2.34 0 2 Z M-3 11 C-3 11.66 -3 12.32 -3 13 C-2.34 13 -1.68 13 -1 13 C-1 12.34 -1 11.68 -1 11 C-1.66 11 -2.32 11 -3 11 Z M1 13 C1.33 13.66 1.66 14.32 2 15 C2.33 14.34 2.66 13.68 3 13 C2.34 13 1.68 13 1 13 Z " fill="#2F2F2F" transform="translate(325,203)"/>
<path d="M0 0 C0 3.90838866 -1.50567876 5.11594107 -4 8 C-2.02 7.34 -0.04 6.68 2 6 C-3.27101414 12.41069287 -9.09128152 18.18590512 -15 24 C-15.625 22.125 -15.625 22.125 -16 20 C-15.34 19.34 -14.68 18.68 -14 18 C-14.47050781 18.42152344 -14.94101562 18.84304687 -15.42578125 19.27734375 C-16.04839844 19.82519531 -16.67101562 20.37304688 -17.3125 20.9375 C-18.23482422 21.75541016 -18.23482422 21.75541016 -19.17578125 22.58984375 C-21 24 -21 24 -24 25 C-24 24.34 -24 23.68 -24 23 C-22.54882812 21.57006836 -22.54882812 21.57006836 -20.53125 19.90234375 C-15.95144237 16.00809374 -11.72332288 11.83665918 -7.5 7.5625 C-6.77296875 6.83095703 -6.0459375 6.09941406 -5.296875 5.34570312 C-3.52890501 3.56610176 -1.76333622 1.78419082 0 0 Z " fill="#686868" transform="translate(313,215)"/>
<path d="M0 0 C1.17825358 0.90172468 2.34231577 1.82201502 3.5 2.75 C4.47453125 3.51570312 4.47453125 3.51570312 5.46875 4.296875 C7 6 7 6 7 10 C5.64453125 11.95703125 5.64453125 11.95703125 3.8125 13.8125 C2.92498047 14.75029297 2.92498047 14.75029297 2.01953125 15.70703125 C1.35308594 16.13371094 0.68664062 16.56039062 0 17 C-0.76256104 16.77111084 -1.52512207 16.54222168 -2.31079102 16.30639648 C-5.13676023 15.68080043 -5.13676023 15.68080043 -7.47949219 17.76660156 C-8.75034668 19.06549316 -8.75034668 19.06549316 -10.046875 20.390625 C-10.97371094 21.32777344 -11.90054687 22.26492187 -12.85546875 23.23046875 C-13.33032715 23.72595215 -13.80518555 24.22143555 -14.29443359 24.73193359 C-15.74483374 26.24461191 -17.21547797 27.73491661 -18.69140625 29.22265625 C-23.75731456 34.02303662 -23.75731456 34.02303662 -27 40 C-27.78808594 38.32299805 -27.78808594 38.32299805 -28 36 C-26.14160156 33.54223633 -26.14160156 33.54223633 -23.390625 30.83203125 C-22.90801208 30.35174973 -22.42539917 29.8714682 -21.92816162 29.37663269 C-20.90487491 28.36309127 -19.87557207 27.35559344 -18.84082031 26.35375977 C-17.25781127 24.82006792 -15.69417234 23.26858622 -14.1328125 21.71289062 C-6.46727561 14.15575854 -6.46727561 14.15575854 -3 13 C-3.33 11.68 -3.66 10.36 -4 9 C-3.01 9 -2.02 9 -1 9 C-1 7.68 -1 6.36 -1 5 C-0.34 5 0.32 5 1 5 C1.93423645 8.01031744 2.04449911 8.86650268 1 12 C2.32 11.01 3.64 10.02 5 9 C3.99554337 6.75928906 3.12245015 5.12245015 1.375 3.375 C0.694375 2.694375 0.694375 2.694375 0 2 C0 1.34 0 0.68 0 0 Z " fill="#4A4A4A" transform="translate(288,161)"/>
<path d="M0 0 C0.99 0.33 1.98 0.66 3 1 C3.33 1.99 3.66 2.98 4 4 C3.27530518 4.2357373 2.55061035 4.47147461 1.80395508 4.71435547 C-1.47078294 6.2158592 -3.34397805 8.00224859 -5.86328125 10.5703125 C-7.19262695 11.91416016 -7.19262695 11.91416016 -8.54882812 13.28515625 C-9.9168457 14.69087891 -9.9168457 14.69087891 -11.3125 16.125 C-12.25255572 17.08011605 -13.19330431 18.03455067 -14.13476562 18.98828125 C-16.43008067 21.31890883 -18.71809646 23.65625196 -21 26 C-21.99 25.67 -22.98 25.34 -24 25 C-23.38125 24.7525 -22.7625 24.505 -22.125 24.25 C-19.56173771 22.74219866 -19.15566096 21.69654224 -18 19 C-15.79994875 14.21165316 -12.41606448 11.91012555 -8.296875 8.84765625 C-5.03938848 6.22726319 -2.5986578 3.26498031 0 0 Z " fill="#ADADAD" transform="translate(282,171)"/>
<path d="M0 0 C0.721875 0.515625 1.44375 1.03125 2.1875 1.5625 C5.4195366 3.21442982 6.61608307 3.06351675 10 2 C9.67 2.66 9.34 3.32 9 4 C8.34 4 7.68 4 7 4 C6.67 4.99 6.34 5.98 6 7 C6.61875 7.0825 7.2375 7.165 7.875 7.25 C10 8 10 8 11.25 10.0625 C11.4975 10.701875 11.745 11.34125 12 12 C11.01 12.99 10.02 13.98 9 15 C8.34 14.67 7.68 14.34 7 14 C7.66 12.68 8.32 11.36 9 10 C6.67642489 9.81509993 6.67642489 9.81509993 4 12 C3 7.25 3 7.25 3 5 C2.505 4.505 2.01 4.01 1.5 3.5 C1.005 3.005 0.51 2.51 0 2 C0 1.34 0 0.68 0 0 Z M-5 2 C-1.2047869 3.49097658 0.61042731 5.75700849 3 9 C2.01 9.33 1.02 9.66 0 10 C1.1241176 11.29243468 2.24932592 12.58392075 3.375 13.875 C4.00148438 14.59429687 4.62796875 15.31359375 5.2734375 16.0546875 C6.47426834 17.4076598 7.7208345 18.7208345 9 20 C4.38725932 19.14764574 1.67099288 16.80306933 -1 13 C-1.125 9.9375 -1.125 9.9375 -1 7 C-2.87769142 4.15079947 -2.87769142 4.15079947 -5 2 Z " fill="#505050" transform="translate(261,216)"/>
<path d="M0 0 C3 2 3 2 3.875 5.375 C4 9 4 9 2.5625 11.4375 C2.046875 11.953125 1.53125 12.46875 1 13 C-2.68754757 12.50168276 -4.60490662 11.89932357 -7 9 C-5.44499019 5.18315774 -2.96404505 2.80804268 0 0 Z M-1 6 C-1 7.32 -1 8.64 -1 10 C-0.01 10 0.98 10 2 10 C2 8.68 2 7.36 2 6 C1.01 6 0.02 6 -1 6 Z " fill="#8A8A8A" transform="translate(305,180)"/>
<path d="M0 0 C0.66 0.33 1.32 0.66 2 1 C-2.24326323 8.81653754 -9.44595524 14.15862807 -16 20 C-16.66 19.67 -17.32 19.34 -18 19 C-17.48050781 18.5153125 -16.96101563 18.030625 -16.42578125 17.53125 C-12.8878079 14.13061018 -9.78082383 10.95168764 -7.3125 6.6875 C-5.37784433 3.36721257 -3.66933143 1.4875668 0 0 Z " fill="#606060" transform="translate(285,165)"/>
<path d="M0 0 C0.66 0.33 1.32 0.66 2 1 C1.67 1.66 1.34 2.32 1 3 C0.67 3 0.34 3 0 3 C-0.33 4.65 -0.66 6.3 -1 8 C-1.99 8.33 -2.98 8.66 -4 9 C-5.20882096 11.00016466 -5.20882096 11.00016466 -6 13 C-6.66 12.67 -7.32 12.34 -8 12 C-8 11.34 -8 10.68 -8 10 C-10.97 9.505 -10.97 9.505 -14 9 C-13.34 8.01 -12.68 7.02 -12 6 C-11.01 6 -10.02 6 -9 6 C-9 6.66 -9 7.32 -9 8 C-7.68712379 6.85459775 -6.37470979 5.70866567 -5.0625 4.5625 C-4.33160156 3.92441406 -3.60070312 3.28632813 -2.84765625 2.62890625 C-1.87860647 1.77458541 -0.91348825 0.91348825 0 0 Z " fill="#ADADAD" transform="translate(298,232)"/>
<path d="M0 0 C3.21043882 1.38188453 5.04936365 2.92421903 7.25 5.625 C7.77078125 6.25664062 8.2915625 6.88828125 8.828125 7.5390625 C9.40820312 8.26222656 9.40820312 8.26222656 10 9 C8.35 10.32 6.7 11.64 5 13 C4.67 11.02 4.34 9.04 4 7 C0.95086772 5.98888907 0.95086772 5.98888907 -2 7 C-2.66 6.34 -3.32 5.68 -4 5 C-2.68 3.35 -1.36 1.7 0 0 Z M0 2 C0 2.66 0 3.32 0 4 C0.99 3.67 1.98 3.34 3 3 C2.01 2.67 1.02 2.34 0 2 Z " fill="#2B2B2B" transform="translate(325,203)"/>
<path d="M0 0 C0.33 0.99 0.66 1.98 1 3 C-1.20214143 6.34399254 -3.18643281 8.64679874 -7 10 C-7.99 10 -8.98 10 -10 10 C-8.5741914 6.54804233 -6.90253666 4.8985744 -3.875 2.75 C-3.15054687 2.22921875 -2.42609375 1.7084375 -1.6796875 1.171875 C-1.12539063 0.78515625 -0.57109375 0.3984375 0 0 Z " fill="#898989" transform="translate(319,213)"/>
<path d="M0 0 C0.66 0.33 1.32 0.66 2 1 C2.25 3.8125 2.25 3.8125 2 7 C0 8.875 0 8.875 -2 10 C-2 9.01 -2 8.02 -2 7 C-3.32 7.33 -4.64 7.66 -6 8 C-5.67 7.01 -5.34 6.02 -5 5 C-5.99 4.01 -6.98 3.02 -8 2 C-6.68 2 -5.36 2 -4 2 C-3.34 2.66 -2.68 3.32 -2 4 C-1.34 2.68 -0.68 1.36 0 0 Z " fill="#5E5E5E" transform="translate(294,240)"/>
<path d="M0 0 C-1.32 0.99 -2.64 1.98 -4 3 C-2.84826645 5.46800047 -1.95216435 7.04783565 0 9 C-1.6875 9.8125 -1.6875 9.8125 -4 10 C-6.75 7.5625 -6.75 7.5625 -9 5 C-8.00233891 2.50584728 -7.31383315 1.21259665 -5.0625 -0.3125 C-3 -1 -3 -1 0 0 Z M-7 3 C-7 6 -7 6 -7 6 Z " fill="#272727" transform="translate(247,200)"/>
<path d="M0 0 C1.32 0.33 2.64 0.66 4 1 C4.33 2.65 4.66 4.3 5 6 C3.1875 6.6875 3.1875 6.6875 1 7 C-0.75 5.5625 -0.75 5.5625 -2 4 C-1.34 2.68 -0.68 1.36 0 0 Z " fill="#999999" transform="translate(244,201)"/>
<path d="M0 0 C-2.31 2.31 -4.62 4.62 -7 7 C-7.99 6.67 -8.98 6.34 -10 6 C-8.54794521 1.40182648 -8.54794521 1.40182648 -6.125 -0.375 C-4 -1 -4 -1 0 0 Z " fill="#8A8A8A" transform="translate(295,219)"/>
<path d="M0 0 C0.33 0.66 0.66 1.32 1 2 C-0.1875 4.625 -0.1875 4.625 -2 7 C-3.32 7 -4.64 7 -6 7 C-6.33 5.02 -6.66 3.04 -7 1 C-3.535 0.505 -3.535 0.505 0 0 Z " fill="#8A8A8A" transform="translate(292,246)"/>
<path d="M0 0 C2.475 0.99 2.475 0.99 5 2 C5 2.99 5 3.98 5 5 C3.02 5.99 3.02 5.99 1 7 C0.01 6.34 -0.98 5.68 -2 5 C-1.125 1.125 -1.125 1.125 0 0 Z " fill="#A2A2A2" transform="translate(325,208)"/>
<path d="M0 0 C0.66 0.33 1.32 0.66 2 1 C1.67 1.66 1.34 2.32 1 3 C1.99 3.33 2.98 3.66 4 4 C4.6875 6.0625 4.6875 6.0625 5 8 C2 8 2 8 -0.6875 5.625 C-3 3 -3 3 -3 1 C-2.01 0.67 -1.02 0.34 0 0 Z " fill="#A2A2A2" transform="translate(264,225)"/>
<path d="M0 0 C0.66 0.33 1.32 0.66 2 1 C1.48308594 1.44730469 0.96617187 1.89460937 0.43359375 2.35546875 C-1.53355613 4.16093508 -3.34481034 5.9028487 -5 8 C-5.13210475 10.86920862 -5.13210475 10.86920862 -4 13 C-4.99 13.495 -4.99 13.495 -6 14 C-6.9765625 7.9453125 -6.9765625 7.9453125 -7 6 C-6.34 5.34 -5.68 4.68 -5 4 C-4.67 3.01 -4.34 2.02 -4 1 C-3.01 1 -2.02 1 -1 1 C-0.67 0.67 -0.34 0.34 0 0 Z " fill="#252525" transform="translate(258,192)"/>
<path d="M0 0 C0.33 0.99 0.66 1.98 1 3 C-0.32 3.99 -1.64 4.98 -3 6 C-2 4 -1 2 0 0 Z M-6 6 C-5.01 6.33 -4.02 6.66 -3 7 C-6.96 10.465 -6.96 10.465 -11 14 C-11.66 13.67 -12.32 13.34 -13 13 C-10.69 10.69 -8.38 8.38 -6 6 Z " fill="#7D7D7D" transform="translate(280,171)"/>
<path d="M0 0 C4.01813472 4.38341969 4.01813472 4.38341969 3.9375 7.125 C2.90219203 9.19561593 1.73999647 10.48695959 0 12 C-0.66 11.67 -1.32 11.34 -2 11 C-1.46375 10.0925 -0.9275 9.185 -0.375 8.25 C1.35338504 5.17119399 1.35338504 5.17119399 0.1875 2.625 C-0.204375 2.08875 -0.59625 1.5525 -1 1 C-0.67 0.67 -0.34 0.34 0 0 Z " fill="#6F6F6F" transform="translate(250,186)"/>
<path d="M0 0 C0 3.49889647 -0.54120332 4.0553603 -2.75 6.625 C-3.26046875 7.23601562 -3.7709375 7.84703125 -4.296875 8.4765625 C-6.19607419 10.17538747 -7.51275949 10.5998787 -10 11 C-10 10.34 -10 9.68 -10 9 C-9.34 9 -8.68 9 -8 9 C-8 8.34 -8 7.68 -8 7 C-6.25 5.2734375 -6.25 5.2734375 -4 3.375 C-3.2575 2.74335938 -2.515 2.11171875 -1.75 1.4609375 C-1.1725 0.97882813 -0.595 0.49671875 0 0 Z " fill="#737373" transform="translate(242,151)"/>
<path d="M0 0 C-2.31 2.31 -4.62 4.62 -7 7 C-8 3 -8 3 -7 0 C-2.25 -1.125 -2.25 -1.125 0 0 Z " fill="#6D6D6D" transform="translate(315,222)"/>
<path d="M0 0 C0.66 0.33 1.32 0.66 2 1 C1.67 1.66 1.34 2.32 1 3 C0.67 3 0.34 3 0 3 C-0.33 4.65 -0.66 6.3 -1 8 C-2.65 7.67 -4.3 7.34 -6 7 C-4.02 4.69 -2.04 2.38 0 0 Z " fill="#A2A2A2" transform="translate(298,232)"/>
<path d="M0 0 C0.66 0 1.32 0 2 0 C1.59316505 2.35964273 1.10185661 3.85934088 -0.3125 5.8125 C-2 7 -2 7 -4.1875 6.6875 C-4.785625 6.460625 -5.38375 6.23375 -6 6 C-4.73577236 3.47154472 -3.47154472 3.23577236 -1 2 C-0.67 1.34 -0.34 0.68 0 0 Z " fill="#676767" transform="translate(250,206)"/>
<path d="M0 0 C1.65 1.32 3.3 2.64 5 4 C4.67 5.65 4.34 7.3 4 9 C2 7.875 2 7.875 0 6 C-0.25 2.8125 -0.25 2.8125 0 0 Z " fill="#9E9E9E" transform="translate(308,183)"/>
<path d="M0 0 C1.32 0.66 2.64 1.32 4 2 C3.1875 3.9375 3.1875 3.9375 2 6 C1.01 6.33 0.02 6.66 -1 7 C-0.67 4.69 -0.34 2.38 0 0 Z " fill="#ABABAB" transform="translate(290,166)"/>
<path d="M0 0 C1.32 0 2.64 0 4 0 C4 0.66 4 1.32 4 2 C4.66 2 5.32 2 6 2 C6.66 3.32 7.32 4.64 8 6 C5 6 5 6 3.61328125 4.6875 C2.40885417 3.125 1.20442708 1.5625 0 0 Z " fill="#ABABAB" transform="translate(279,245)"/>
<path d="M0 0 C0.66 0 1.32 0 2 0 C2.33 2.31 2.66 4.62 3 7 C1.68 6.67 0.36 6.34 -1 6 C-1.042721 4.33388095 -1.04063832 2.66617115 -1 1 C-0.67 0.67 -0.34 0.34 0 0 Z " fill="#A1A1A1" transform="translate(284,218)"/>
<path d="M0 0 C0.33 0.99 0.66 1.98 1 3 C-0.62339805 4.70884005 -2.29319053 6.37446717 -4 8 C-4.66 8 -5.32 8 -6 8 C-4.73058503 4.08597051 -3.48832306 2.20927127 0 0 Z " fill="#737373" transform="translate(266,185)"/>
<path d="M0 0 C0.33 0.99 0.66 1.98 1 3 C0.01 3.33 -0.98 3.66 -2 4 C-3.20882096 6.00016466 -3.20882096 6.00016466 -4 8 C-4.99 7.67 -5.98 7.34 -7 7 C-4.69 4.69 -2.38 2.38 0 0 Z " fill="#828282" transform="translate(271,122)"/>
<path d="M0 0 C0.33 0.66 0.66 1.32 1 2 C-1.47812494 5.45167403 -2.79606135 7.23163306 -7 8 C-6.02133662 6.85373678 -5.04205413 5.70800212 -4.0625 4.5625 C-3.51722656 3.92441406 -2.97195312 3.28632813 -2.41015625 2.62890625 C-1.63204305 1.73008851 -0.84063472 0.84063472 0 0 Z " fill="#818181" transform="translate(250,143)"/>
<path d="M0 0 C0.625 1.875 0.625 1.875 1 4 C0.34 4.66 -0.32 5.32 -1 6 C-1.99 6 -2.98 6 -4 6 C-2.84826645 3.53199953 -1.95216435 1.95216435 0 0 Z " fill="#AEAEAE" transform="translate(313,217)"/>
<path d="" fill="#000000" transform="translate(0,0)"/>
<path d="" fill="#000000" transform="translate(0,0)"/>
<path d="" fill="#000000" transform="translate(0,0)"/>
<path d="" fill="#000000" transform="translate(0,0)"/>
<path d="" fill="#000000" transform="translate(0,0)"/>
<path d="" fill="#000000" transform="translate(0,0)"/>
<path d="" fill="#000000" transform="translate(0,0)"/>
<path d="" fill="#000000" transform="translate(0,0)"/>
<path d="" fill="#000000" transform="translate(0,0)"/>
<path d="" fill="#000000" transform="translate(0,0)"/>
<path d="" fill="#000000" transform="translate(0,0)"/>
<path d="" fill="#000000" transform="translate(0,0)"/>
<path d="" fill="#000000" transform="translate(0,0)"/>
<path d="" fill="#000000" transform="translate(0,0)"/>
<path d="" fill="#000000" transform="translate(0,0)"/>
<path d="" fill="#000000" transform="translate(0,0)"/>
<path d="" fill="#000000" transform="translate(0,0)"/>
<path d="" fill="#000000" transform="translate(0,0)"/>
<path d="" fill="#000000" transform="translate(0,0)"/>
<path d="" fill="#000000" transform="translate(0,0)"/>
<path d="" fill="#000000" transform="translate(0,0)"/>
<path d="" fill="#000000" transform="translate(0,0)"/>
<path d="" fill="#000000" transform="translate(0,0)"/>
<path d="" fill="#000000" transform="translate(0,0)"/>
<path d="" fill="#000000" transform="translate(0,0)"/>
<path d="" fill="#000000" transform="translate(0,0)"/>
<path d="" fill="#000000" transform="translate(0,0)"/>
<path d="" fill="#000000" transform="translate(0,0)"/>
<path d="" fill="#000000" transform="translate(0,0)"/>
<path d="" fill="#000000" transform="translate(0,0)"/>
<path d="" fill="#000000" transform="translate(0,0)"/>
<path d="" fill="#000000" transform="translate(0,0)"/>
<path d="" fill="#000000" transform="translate(0,0)"/>
<path d="" fill="#000000" transform="translate(0,0)"/>
<path d="" fill="#000000" transform="translate(0,0)"/>
<path d="" fill="#000000" transform="translate(0,0)"/>
<path d="" fill="#000000" transform="translate(0,0)"/>
<path d="" fill="#000000" transform="translate(0,0)"/>
<path d="" fill="#000000" transform="translate(0,0)"/>
<path d="" fill="#000000" transform="translate(0,0)"/>
<path d="" fill="#000000" transform="translate(0,0)"/>
<path d="" fill="#000000" transform="translate(0,0)"/>
<path d="" fill="#000000" transform="translate(0,0)"/>
<path d="" fill="#000000" transform="translate(0,0)"/>
<path d="" fill="#000000" transform="translate(0,0)"/>
<path d="" fill="#000000" transform="translate(0,0)"/>
<path d="" fill="#000000" transform="translate(0,0)"/>
<path d="" fill="#000000" transform="translate(0,0)"/>
<path d="" fill="#000000" transform="translate(0,0)"/>
<path d="" fill="#000000" transform="translate(0,0)"/>
<path d="" fill="#000000" transform="translate(0,0)"/>
<path d="" fill="#000000" transform="translate(0,0)"/>
<path d="" fill="#000000" transform="translate(0,0)"/>
<path d="" fill="#000000" transform="translate(0,0)"/>
<path d="" fill="#000000" transform="translate(0,0)"/>
<path d="" fill="#000000" transform="translate(0,0)"/>
<path d="" fill="#000000" transform="translate(0,0)"/>
<path d="" fill="#000000" transform="translate(0,0)"/>
<path d="" fill="#000000" transform="translate(0,0)"/>
<path d="" fill="#000000" transform="translate(0,0)"/>
<path d="" fill="#000000" transform="translate(0,0)"/>
<path d="" fill="#000000" transform="translate(0,0)"/>
<path d="" fill="#000000" transform="translate(0,0)"/>
<path d="" fill="#000000" transform="translate(0,0)"/>
<path d="" fill="#000000" transform="translate(0,0)"/>
<path d="" fill="#000000" transform="translate(0,0)"/>
<path d="" fill="#000000" transform="translate(0,0)"/>
<path d="" fill="#000000" transform="translate(0,0)"/>
<path d="" fill="#000000" transform="translate(0,0)"/>
<path d="" fill="#000000" transform="translate(0,0)"/>
<path d="" fill="#000000" transform="translate(0,0)"/>
<path d="" fill="#000000" transform="translate(0,0)"/>
<path d="" fill="#000000" transform="translate(0,0)"/>
</svg>
